<svg viewBox="0 0 1156 130" xmlns="http://www.w3.org/2000/svg" role="img" aria-label="Recompendium">
  <defs>
    <linearGradient id="gold" x1="0" y1="0" x2="0" y2="1">
      <stop offset="0" stop-color="#FFDC73"/><stop offset="1" stop-color="#E8990C"/>
    </linearGradient>
    <linearGradient id="tile" x1="0" y1="0" x2="0" y2="1">
      <stop offset="0" stop-color="#1B202B"/><stop offset="1" stop-color="#0D1017"/>
    </linearGradient>
  </defs>
    <rect x="10.0" y="10.0" width="14" height="14" rx="2" fill="#F4F6FB"/>
    <rect x="26.0" y="10.0" width="14" height="14" rx="2" fill="#F4F6FB"/>
    <rect x="42.0" y="10.0" width="14" height="14" rx="2" fill="#F4F6FB"/>
    <rect x="58.0" y="10.0" width="14" height="14" rx="2" fill="#F4F6FB"/>
    <rect x="10.0" y="26.0" width="14" height="14" rx="2" fill="#F4F6FB"/>
    <rect x="74.0" y="26.0" width="14" height="14" rx="2" fill="#F4F6FB"/>
    <rect x="10.0" y="42.0" width="14" height="14" rx="2" fill="#F4F6FB"/>
    <rect x="74.0" y="42.0" width="14" height="14" rx="2" fill="#F4F6FB"/>
    <rect x="10.0" y="58.0" width="14" height="14" rx="2" fill="#F4F6FB"/>
    <rect x="26.0" y="58.0" width="14" height="14" rx="2" fill="#F4F6FB"/>
    <rect x="42.0" y="58.0" width="14" height="14" rx="2" fill="#F4F6FB"/>
    <rect x="58.0" y="58.0" width="14" height="14" rx="2" fill="#F4F6FB"/>
    <rect x="10.0" y="74.0" width="14" height="14" rx="2" fill="#F4F6FB"/>
    <rect x="42.0" y="74.0" width="14" height="14" rx="2" fill="#F4F6FB"/>
    <rect x="10.0" y="90.0" width="14" height="14" rx="2" fill="#F4F6FB"/>
    <rect x="58.0" y="90.0" width="14" height="14" rx="2" fill="#F4F6FB"/>
    <rect x="10.0" y="106.0" width="14" height="14" rx="2" fill="#F4F6FB"/>
    <rect x="74.0" y="106.0" width="14" height="14" rx="2" fill="#F4F6FB"/>
    <rect x="106.0" y="10.0" width="14" height="14" rx="2" fill="#F4F6FB"/>
    <rect x="122.0" y="10.0" width="14" height="14" rx="2" fill="#F4F6FB"/>
    <rect x="138.0" y="10.0" width="14" height="14" rx="2" fill="#F4F6FB"/>
    <rect x="154.0" y="10.0" width="14" height="14" rx="2" fill="#F4F6FB"/>
    <rect x="170.0" y="10.0" width="14" height="14" rx="2" fill="#F4F6FB"/>
    <rect x="106.0" y="26.0" width="14" height="14" rx="2" fill="#F4F6FB"/>
    <rect x="106.0" y="42.0" width="14" height="14" rx="2" fill="#F4F6FB"/>
    <rect x="106.0" y="58.0" width="14" height="14" rx="2" fill="#F4F6FB"/>
    <rect x="122.0" y="58.0" width="14" height="14" rx="2" fill="#F4F6FB"/>
    <rect x="138.0" y="58.0" width="14" height="14" rx="2" fill="#F4F6FB"/>
    <rect x="154.0" y="58.0" width="14" height="14" rx="2" fill="#F4F6FB"/>
    <rect x="106.0" y="74.0" width="14" height="14" rx="2" fill="#F4F6FB"/>
    <rect x="106.0" y="90.0" width="14" height="14" rx="2" fill="#F4F6FB"/>
    <rect x="106.0" y="106.0" width="14" height="14" rx="2" fill="#F4F6FB"/>
    <rect x="122.0" y="106.0" width="14" height="14" rx="2" fill="#F4F6FB"/>
    <rect x="138.0" y="106.0" width="14" height="14" rx="2" fill="#F4F6FB"/>
    <rect x="154.0" y="106.0" width="14" height="14" rx="2" fill="#F4F6FB"/>
    <rect x="170.0" y="106.0" width="14" height="14" rx="2" fill="#F4F6FB"/>
    <rect x="218.0" y="10.0" width="14" height="14" rx="2" fill="#F4F6FB"/>
    <rect x="234.0" y="10.0" width="14" height="14" rx="2" fill="#F4F6FB"/>
    <rect x="250.0" y="10.0" width="14" height="14" rx="2" fill="#F4F6FB"/>
    <rect x="266.0" y="10.0" width="14" height="14" rx="2" fill="#F4F6FB"/>
    <rect x="202.0" y="26.0" width="14" height="14" rx="2" fill="#F4F6FB"/>
    <rect x="202.0" y="42.0" width="14" height="14" rx="2" fill="#F4F6FB"/>
    <rect x="202.0" y="58.0" width="14" height="14" rx="2" fill="#F4F6FB"/>
    <rect x="202.0" y="74.0" width="14" height="14" rx="2" fill="#F4F6FB"/>
    <rect x="202.0" y="90.0" width="14" height="14" rx="2" fill="#F4F6FB"/>
    <rect x="218.0" y="106.0" width="14" height="14" rx="2" fill="#F4F6FB"/>
    <rect x="234.0" y="106.0" width="14" height="14" rx="2" fill="#F4F6FB"/>
    <rect x="250.0" y="106.0" width="14" height="14" rx="2" fill="#F4F6FB"/>
    <rect x="266.0" y="106.0" width="14" height="14" rx="2" fill="#F4F6FB"/>
    <rect x="314.0" y="10.0" width="14" height="14" rx="2" fill="#F4F6FB"/>
    <rect x="330.0" y="10.0" width="14" height="14" rx="2" fill="#F4F6FB"/>
    <rect x="346.0" y="10.0" width="14" height="14" rx="2" fill="#F4F6FB"/>
    <rect x="298.0" y="26.0" width="14" height="14" rx="2" fill="#F4F6FB"/>
    <rect x="362.0" y="26.0" width="14" height="14" rx="2" fill="#F4F6FB"/>
    <rect x="298.0" y="42.0" width="14" height="14" rx="2" fill="#F4F6FB"/>
    <rect x="362.0" y="42.0" width="14" height="14" rx="2" fill="#F4F6FB"/>
    <rect x="298.0" y="58.0" width="14" height="14" rx="2" fill="#F4F6FB"/>
    <rect x="362.0" y="58.0" width="14" height="14" rx="2" fill="#F4F6FB"/>
    <rect x="298.0" y="74.0" width="14" height="14" rx="2" fill="#F4F6FB"/>
    <rect x="362.0" y="74.0" width="14" height="14" rx="2" fill="#F4F6FB"/>
    <rect x="298.0" y="90.0" width="14" height="14" rx="2" fill="#F4F6FB"/>
    <rect x="362.0" y="90.0" width="14" height="14" rx="2" fill="#F4F6FB"/>
    <rect x="314.0" y="106.0" width="14" height="14" rx="2" fill="#F4F6FB"/>
    <rect x="330.0" y="106.0" width="14" height="14" rx="2" fill="#F4F6FB"/>
    <rect x="346.0" y="106.0" width="14" height="14" rx="2" fill="#F4F6FB"/>
    <rect x="394.0" y="10.0" width="14" height="14" rx="2" fill="#F4F6FB"/>
    <rect x="458.0" y="10.0" width="14" height="14" rx="2" fill="#F4F6FB"/>
    <rect x="394.0" y="26.0" width="14" height="14" rx="2" fill="#F4F6FB"/>
    <rect x="410.0" y="26.0" width="14" height="14" rx="2" fill="#F4F6FB"/>
    <rect x="442.0" y="26.0" width="14" height="14" rx="2" fill="#F4F6FB"/>
    <rect x="458.0" y="26.0" width="14" height="14" rx="2" fill="#F4F6FB"/>
    <rect x="394.0" y="42.0" width="14" height="14" rx="2" fill="#F4F6FB"/>
    <rect x="426.0" y="42.0" width="14" height="14" rx="2" fill="#F4F6FB"/>
    <rect x="458.0" y="42.0" width="14" height="14" rx="2" fill="#F4F6FB"/>
    <rect x="394.0" y="58.0" width="14" height="14" rx="2" fill="#F4F6FB"/>
    <rect x="426.0" y="58.0" width="14" height="14" rx="2" fill="#F4F6FB"/>
    <rect x="458.0" y="58.0" width="14" height="14" rx="2" fill="#F4F6FB"/>
    <rect x="394.0" y="74.0" width="14" height="14" rx="2" fill="#F4F6FB"/>
    <rect x="458.0" y="74.0" width="14" height="14" rx="2" fill="#F4F6FB"/>
    <rect x="394.0" y="90.0" width="14" height="14" rx="2" fill="#F4F6FB"/>
    <rect x="458.0" y="90.0" width="14" height="14" rx="2" fill="#F4F6FB"/>
    <rect x="394.0" y="106.0" width="14" height="14" rx="2" fill="#F4F6FB"/>
    <rect x="458.0" y="106.0" width="14" height="14" rx="2" fill="#F4F6FB"/>
    <rect x="490.0" y="10.0" width="14" height="14" rx="2" fill="#F4F6FB"/>
    <rect x="506.0" y="10.0" width="14" height="14" rx="2" fill="#F4F6FB"/>
    <rect x="522.0" y="10.0" width="14" height="14" rx="2" fill="#F4F6FB"/>
    <rect x="538.0" y="10.0" width="14" height="14" rx="2" fill="#F4F6FB"/>
    <rect x="490.0" y="26.0" width="14" height="14" rx="2" fill="#F4F6FB"/>
    <rect x="554.0" y="26.0" width="14" height="14" rx="2" fill="#F4F6FB"/>
    <rect x="490.0" y="42.0" width="14" height="14" rx="2" fill="#F4F6FB"/>
    <rect x="554.0" y="42.0" width="14" height="14" rx="2" fill="#F4F6FB"/>
    <rect x="490.0" y="58.0" width="14" height="14" rx="2" fill="#F4F6FB"/>
    <rect x="506.0" y="58.0" width="14" height="14" rx="2" fill="#F4F6FB"/>
    <rect x="522.0" y="58.0" width="14" height="14" rx="2" fill="#F4F6FB"/>
    <rect x="538.0" y="58.0" width="14" height="14" rx="2" fill="#F4F6FB"/>
    <rect x="490.0" y="74.0" width="14" height="14" rx="2" fill="#F4F6FB"/>
    <rect x="490.0" y="90.0" width="14" height="14" rx="2" fill="#F4F6FB"/>
    <rect x="490.0" y="106.0" width="14" height="14" rx="2" fill="#F4F6FB"/>
    <rect x="586.0" y="10.0" width="14" height="14" rx="2" fill="url(#gold)"/>
    <rect x="602.0" y="10.0" width="14" height="14" rx="2" fill="url(#gold)"/>
    <rect x="618.0" y="10.0" width="14" height="14" rx="2" fill="url(#gold)"/>
    <rect x="634.0" y="10.0" width="14" height="14" rx="2" fill="url(#gold)"/>
    <rect x="650.0" y="10.0" width="14" height="14" rx="2" fill="url(#gold)"/>
    <rect x="586.0" y="26.0" width="14" height="14" rx="2" fill="url(#gold)"/>
    <rect x="586.0" y="42.0" width="14" height="14" rx="2" fill="url(#gold)"/>
    <rect x="586.0" y="58.0" width="14" height="14" rx="2" fill="url(#gold)"/>
    <rect x="602.0" y="58.0" width="14" height="14" rx="2" fill="url(#gold)"/>
    <rect x="618.0" y="58.0" width="14" height="14" rx="2" fill="url(#gold)"/>
    <rect x="634.0" y="58.0" width="14" height="14" rx="2" fill="url(#gold)"/>
    <rect x="586.0" y="74.0" width="14" height="14" rx="2" fill="url(#gold)"/>
    <rect x="586.0" y="90.0" width="14" height="14" rx="2" fill="url(#gold)"/>
    <rect x="586.0" y="106.0" width="14" height="14" rx="2" fill="url(#gold)"/>
    <rect x="602.0" y="106.0" width="14" height="14" rx="2" fill="url(#gold)"/>
    <rect x="618.0" y="106.0" width="14" height="14" rx="2" fill="url(#gold)"/>
    <rect x="634.0" y="106.0" width="14" height="14" rx="2" fill="url(#gold)"/>
    <rect x="650.0" y="106.0" width="14" height="14" rx="2" fill="url(#gold)"/>
    <rect x="682.0" y="10.0" width="14" height="14" rx="2" fill="url(#gold)"/>
    <rect x="746.0" y="10.0" width="14" height="14" rx="2" fill="url(#gold)"/>
    <rect x="682.0" y="26.0" width="14" height="14" rx="2" fill="url(#gold)"/>
    <rect x="698.0" y="26.0" width="14" height="14" rx="2" fill="url(#gold)"/>
    <rect x="746.0" y="26.0" width="14" height="14" rx="2" fill="url(#gold)"/>
    <rect x="682.0" y="42.0" width="14" height="14" rx="2" fill="url(#gold)"/>
    <rect x="714.0" y="42.0" width="14" height="14" rx="2" fill="url(#gold)"/>
    <rect x="746.0" y="42.0" width="14" height="14" rx="2" fill="url(#gold)"/>
    <rect x="682.0" y="58.0" width="14" height="14" rx="2" fill="url(#gold)"/>
    <rect x="714.0" y="58.0" width="14" height="14" rx="2" fill="url(#gold)"/>
    <rect x="746.0" y="58.0" width="14" height="14" rx="2" fill="url(#gold)"/>
    <rect x="682.0" y="74.0" width="14" height="14" rx="2" fill="url(#gold)"/>
    <rect x="730.0" y="74.0" width="14" height="14" rx="2" fill="url(#gold)"/>
    <rect x="746.0" y="74.0" width="14" height="14" rx="2" fill="url(#gold)"/>
    <rect x="682.0" y="90.0" width="14" height="14" rx="2" fill="url(#gold)"/>
    <rect x="746.0" y="90.0" width="14" height="14" rx="2" fill="url(#gold)"/>
    <rect x="682.0" y="106.0" width="14" height="14" rx="2" fill="url(#gold)"/>
    <rect x="746.0" y="106.0" width="14" height="14" rx="2" fill="url(#gold)"/>
    <rect x="778.0" y="10.0" width="14" height="14" rx="2" fill="url(#gold)"/>
    <rect x="794.0" y="10.0" width="14" height="14" rx="2" fill="url(#gold)"/>
    <rect x="810.0" y="10.0" width="14" height="14" rx="2" fill="url(#gold)"/>
    <rect x="826.0" y="10.0" width="14" height="14" rx="2" fill="url(#gold)"/>
    <rect x="778.0" y="26.0" width="14" height="14" rx="2" fill="url(#gold)"/>
    <rect x="842.0" y="26.0" width="14" height="14" rx="2" fill="url(#gold)"/>
    <rect x="778.0" y="42.0" width="14" height="14" rx="2" fill="url(#gold)"/>
    <rect x="842.0" y="42.0" width="14" height="14" rx="2" fill="url(#gold)"/>
    <rect x="778.0" y="58.0" width="14" height="14" rx="2" fill="url(#gold)"/>
    <rect x="842.0" y="58.0" width="14" height="14" rx="2" fill="url(#gold)"/>
    <rect x="778.0" y="74.0" width="14" height="14" rx="2" fill="url(#gold)"/>
    <rect x="842.0" y="74.0" width="14" height="14" rx="2" fill="url(#gold)"/>
    <rect x="778.0" y="90.0" width="14" height="14" rx="2" fill="url(#gold)"/>
    <rect x="842.0" y="90.0" width="14" height="14" rx="2" fill="url(#gold)"/>
    <rect x="778.0" y="106.0" width="14" height="14" rx="2" fill="url(#gold)"/>
    <rect x="794.0" y="106.0" width="14" height="14" rx="2" fill="url(#gold)"/>
    <rect x="810.0" y="106.0" width="14" height="14" rx="2" fill="url(#gold)"/>
    <rect x="826.0" y="106.0" width="14" height="14" rx="2" fill="url(#gold)"/>
    <rect x="874.0" y="10.0" width="14" height="14" rx="2" fill="url(#gold)"/>
    <rect x="890.0" y="10.0" width="14" height="14" rx="2" fill="url(#gold)"/>
    <rect x="906.0" y="10.0" width="14" height="14" rx="2" fill="url(#gold)"/>
    <rect x="922.0" y="10.0" width="14" height="14" rx="2" fill="url(#gold)"/>
    <rect x="938.0" y="10.0" width="14" height="14" rx="2" fill="url(#gold)"/>
    <rect x="906.0" y="26.0" width="14" height="14" rx="2" fill="url(#gold)"/>
    <rect x="906.0" y="42.0" width="14" height="14" rx="2" fill="url(#gold)"/>
    <rect x="906.0" y="58.0" width="14" height="14" rx="2" fill="url(#gold)"/>
    <rect x="906.0" y="74.0" width="14" height="14" rx="2" fill="url(#gold)"/>
    <rect x="906.0" y="90.0" width="14" height="14" rx="2" fill="url(#gold)"/>
    <rect x="874.0" y="106.0" width="14" height="14" rx="2" fill="url(#gold)"/>
    <rect x="890.0" y="106.0" width="14" height="14" rx="2" fill="url(#gold)"/>
    <rect x="906.0" y="106.0" width="14" height="14" rx="2" fill="url(#gold)"/>
    <rect x="922.0" y="106.0" width="14" height="14" rx="2" fill="url(#gold)"/>
    <rect x="938.0" y="106.0" width="14" height="14" rx="2" fill="url(#gold)"/>
    <rect x="970.0" y="10.0" width="14" height="14" rx="2" fill="url(#gold)"/>
    <rect x="1034.0" y="10.0" width="14" height="14" rx="2" fill="url(#gold)"/>
    <rect x="970.0" y="26.0" width="14" height="14" rx="2" fill="url(#gold)"/>
    <rect x="1034.0" y="26.0" width="14" height="14" rx="2" fill="url(#gold)"/>
    <rect x="970.0" y="42.0" width="14" height="14" rx="2" fill="url(#gold)"/>
    <rect x="1034.0" y="42.0" width="14" height="14" rx="2" fill="url(#gold)"/>
    <rect x="970.0" y="58.0" width="14" height="14" rx="2" fill="url(#gold)"/>
    <rect x="1034.0" y="58.0" width="14" height="14" rx="2" fill="url(#gold)"/>
    <rect x="970.0" y="74.0" width="14" height="14" rx="2" fill="url(#gold)"/>
    <rect x="1034.0" y="74.0" width="14" height="14" rx="2" fill="url(#gold)"/>
    <rect x="970.0" y="90.0" width="14" height="14" rx="2" fill="url(#gold)"/>
    <rect x="1034.0" y="90.0" width="14" height="14" rx="2" fill="url(#gold)"/>
    <rect x="986.0" y="106.0" width="14" height="14" rx="2" fill="url(#gold)"/>
    <rect x="1002.0" y="106.0" width="14" height="14" rx="2" fill="url(#gold)"/>
    <rect x="1018.0" y="106.0" width="14" height="14" rx="2" fill="url(#gold)"/>
    <rect x="1066.0" y="10.0" width="14" height="14" rx="2" fill="url(#gold)"/>
    <rect x="1130.0" y="10.0" width="14" height="14" rx="2" fill="url(#gold)"/>
    <rect x="1066.0" y="26.0" width="14" height="14" rx="2" fill="url(#gold)"/>
    <rect x="1082.0" y="26.0" width="14" height="14" rx="2" fill="url(#gold)"/>
    <rect x="1114.0" y="26.0" width="14" height="14" rx="2" fill="url(#gold)"/>
    <rect x="1130.0" y="26.0" width="14" height="14" rx="2" fill="url(#gold)"/>
    <rect x="1066.0" y="42.0" width="14" height="14" rx="2" fill="url(#gold)"/>
    <rect x="1098.0" y="42.0" width="14" height="14" rx="2" fill="url(#gold)"/>
    <rect x="1130.0" y="42.0" width="14" height="14" rx="2" fill="url(#gold)"/>
    <rect x="1066.0" y="58.0" width="14" height="14" rx="2" fill="url(#gold)"/>
    <rect x="1098.0" y="58.0" width="14" height="14" rx="2" fill="url(#gold)"/>
    <rect x="1130.0" y="58.0" width="14" height="14" rx="2" fill="url(#gold)"/>
    <rect x="1066.0" y="74.0" width="14" height="14" rx="2" fill="url(#gold)"/>
    <rect x="1130.0" y="74.0" width="14" height="14" rx="2" fill="url(#gold)"/>
    <rect x="1066.0" y="90.0" width="14" height="14" rx="2" fill="url(#gold)"/>
    <rect x="1130.0" y="90.0" width="14" height="14" rx="2" fill="url(#gold)"/>
    <rect x="1066.0" y="106.0" width="14" height="14" rx="2" fill="url(#gold)"/>
    <rect x="1130.0" y="106.0" width="14" height="14" rx="2" fill="url(#gold)"/>
</svg>