<svg viewBox="0 0 512 512" xmlns="http://www.w3.org/2000/svg" role="img" aria-label="Recompendium">
  <defs>
    <linearGradient id="gold" x1="0" y1="0" x2="0" y2="1">
      <stop offset="0" stop-color="#FFDC73"/><stop offset="1" stop-color="#E8990C"/>
    </linearGradient>
    <linearGradient id="tile" x1="0" y1="0" x2="0" y2="1">
      <stop offset="0" stop-color="#1B202B"/><stop offset="1" stop-color="#0D1017"/>
    </linearGradient>
  </defs>
  <rect width="512" height="512" rx="104" fill="url(#tile)"/>
  <rect x="6" y="6" width="500" height="500" rx="98" fill="none" stroke="#F0B429" stroke-opacity="0.28" stroke-width="4"/>
    <rect x="103.0" y="87.0" width="34" height="34" rx="2" fill="url(#gold)"/>
    <rect x="141.0" y="87.0" width="34" height="34" rx="2" fill="url(#gold)"/>
    <rect x="179.0" y="87.0" width="34" height="34" rx="2" fill="url(#gold)"/>
    <rect x="217.0" y="87.0" width="34" height="34" rx="2" fill="url(#gold)"/>
    <rect x="255.0" y="87.0" width="34" height="34" rx="2" fill="url(#gold)"/>
    <rect x="103.0" y="125.0" width="34" height="34" rx="2" fill="url(#gold)"/>
    <rect x="141.0" y="125.0" width="34" height="34" rx="2" fill="url(#gold)"/>
    <rect x="293.0" y="125.0" width="34" height="34" rx="2" fill="url(#gold)"/>
    <rect x="331.0" y="125.0" width="34" height="34" rx="2" fill="url(#gold)"/>
    <rect x="103.0" y="163.0" width="34" height="34" rx="2" fill="url(#gold)"/>
    <rect x="141.0" y="163.0" width="34" height="34" rx="2" fill="url(#gold)"/>
    <rect x="293.0" y="163.0" width="34" height="34" rx="2" fill="url(#gold)"/>
    <rect x="331.0" y="163.0" width="34" height="34" rx="2" fill="url(#gold)"/>
    <rect x="103.0" y="201.0" width="34" height="34" rx="2" fill="url(#gold)"/>
    <rect x="141.0" y="201.0" width="34" height="34" rx="2" fill="url(#gold)"/>
    <rect x="293.0" y="201.0" width="34" height="34" rx="2" fill="url(#gold)"/>
    <rect x="331.0" y="201.0" width="34" height="34" rx="2" fill="url(#gold)"/>
    <rect x="103.0" y="239.0" width="34" height="34" rx="2" fill="url(#gold)"/>
    <rect x="141.0" y="239.0" width="34" height="34" rx="2" fill="url(#gold)"/>
    <rect x="179.0" y="239.0" width="34" height="34" rx="2" fill="url(#gold)"/>
    <rect x="217.0" y="239.0" width="34" height="34" rx="2" fill="url(#gold)"/>
    <rect x="255.0" y="239.0" width="34" height="34" rx="2" fill="url(#gold)"/>
    <rect x="103.0" y="277.0" width="34" height="34" rx="2" fill="url(#gold)"/>
    <rect x="141.0" y="277.0" width="34" height="34" rx="2" fill="url(#gold)"/>
    <rect x="179.0" y="277.0" width="34" height="34" rx="2" fill="url(#gold)"/>
    <rect x="217.0" y="277.0" width="34" height="34" rx="2" fill="url(#gold)"/>
    <rect x="103.0" y="315.0" width="34" height="34" rx="2" fill="url(#gold)"/>
    <rect x="141.0" y="315.0" width="34" height="34" rx="2" fill="url(#gold)"/>
    <rect x="217.0" y="315.0" width="34" height="34" rx="2" fill="url(#gold)"/>
    <rect x="255.0" y="315.0" width="34" height="34" rx="2" fill="url(#gold)"/>
    <rect x="103.0" y="353.0" width="34" height="34" rx="2" fill="url(#gold)"/>
    <rect x="141.0" y="353.0" width="34" height="34" rx="2" fill="url(#gold)"/>
    <rect x="255.0" y="353.0" width="34" height="34" rx="2" fill="url(#gold)"/>
    <rect x="293.0" y="353.0" width="34" height="34" rx="2" fill="url(#gold)"/>
    <rect x="103.0" y="391.0" width="34" height="34" rx="2" fill="url(#gold)"/>
    <rect x="141.0" y="391.0" width="34" height="34" rx="2" fill="url(#gold)"/>
    <rect x="293.0" y="391.0" width="34" height="34" rx="2" fill="url(#gold)"/>
    <rect x="331.0" y="391.0" width="34" height="34" rx="2" fill="url(#gold)"/>
  <rect x="375.0" y="391.0" width="34" height="34" rx="2" fill="url(#gold)"><animate attributeName="opacity" values="1;1;0;0" keyTimes="0;0.5;0.5;1" dur="1.1s" repeatCount="indefinite"/></rect>
</svg>