<svg viewBox="0 0 1195 256" xmlns="http://www.w3.org/2000/svg" role="img" aria-label="Recompendium">
  <defs>
    <linearGradient id="gold" x1="0" y1="0" x2="0" y2="1">
      <stop offset="0" stop-color="#FFDC73"/><stop offset="1" stop-color="#E8990C"/>
    </linearGradient>
    <linearGradient id="tile" x1="0" y1="0" x2="0" y2="1">
      <stop offset="0" stop-color="#1B202B"/><stop offset="1" stop-color="#0D1017"/>
    </linearGradient>
  </defs>
  <rect width="1195" height="256" rx="22" fill="url(#tile)"/>
    <rect x="26.0" y="26.0" width="20" height="20" rx="2" fill="url(#gold)"/>
    <rect x="49.0" y="26.0" width="20" height="20" rx="2" fill="url(#gold)"/>
    <rect x="72.0" y="26.0" width="20" height="20" rx="2" fill="url(#gold)"/>
    <rect x="95.0" y="26.0" width="20" height="20" rx="2" fill="url(#gold)"/>
    <rect x="118.0" y="26.0" width="20" height="20" rx="2" fill="url(#gold)"/>
    <rect x="26.0" y="49.0" width="20" height="20" rx="2" fill="url(#gold)"/>
    <rect x="49.0" y="49.0" width="20" height="20" rx="2" fill="url(#gold)"/>
    <rect x="141.0" y="49.0" width="20" height="20" rx="2" fill="url(#gold)"/>
    <rect x="164.0" y="49.0" width="20" height="20" rx="2" fill="url(#gold)"/>
    <rect x="26.0" y="72.0" width="20" height="20" rx="2" fill="url(#gold)"/>
    <rect x="49.0" y="72.0" width="20" height="20" rx="2" fill="url(#gold)"/>
    <rect x="141.0" y="72.0" width="20" height="20" rx="2" fill="url(#gold)"/>
    <rect x="164.0" y="72.0" width="20" height="20" rx="2" fill="url(#gold)"/>
    <rect x="26.0" y="95.0" width="20" height="20" rx="2" fill="url(#gold)"/>
    <rect x="49.0" y="95.0" width="20" height="20" rx="2" fill="url(#gold)"/>
    <rect x="141.0" y="95.0" width="20" height="20" rx="2" fill="url(#gold)"/>
    <rect x="164.0" y="95.0" width="20" height="20" rx="2" fill="url(#gold)"/>
    <rect x="26.0" y="118.0" width="20" height="20" rx="2" fill="url(#gold)"/>
    <rect x="49.0" y="118.0" width="20" height="20" rx="2" fill="url(#gold)"/>
    <rect x="72.0" y="118.0" width="20" height="20" rx="2" fill="url(#gold)"/>
    <rect x="95.0" y="118.0" width="20" height="20" rx="2" fill="url(#gold)"/>
    <rect x="118.0" y="118.0" width="20" height="20" rx="2" fill="url(#gold)"/>
    <rect x="26.0" y="141.0" width="20" height="20" rx="2" fill="url(#gold)"/>
    <rect x="49.0" y="141.0" width="20" height="20" rx="2" fill="url(#gold)"/>
    <rect x="72.0" y="141.0" width="20" height="20" rx="2" fill="url(#gold)"/>
    <rect x="95.0" y="141.0" width="20" height="20" rx="2" fill="url(#gold)"/>
    <rect x="26.0" y="164.0" width="20" height="20" rx="2" fill="url(#gold)"/>
    <rect x="49.0" y="164.0" width="20" height="20" rx="2" fill="url(#gold)"/>
    <rect x="95.0" y="164.0" width="20" height="20" rx="2" fill="url(#gold)"/>
    <rect x="118.0" y="164.0" width="20" height="20" rx="2" fill="url(#gold)"/>
    <rect x="26.0" y="187.0" width="20" height="20" rx="2" fill="url(#gold)"/>
    <rect x="49.0" y="187.0" width="20" height="20" rx="2" fill="url(#gold)"/>
    <rect x="118.0" y="187.0" width="20" height="20" rx="2" fill="url(#gold)"/>
    <rect x="141.0" y="187.0" width="20" height="20" rx="2" fill="url(#gold)"/>
    <rect x="26.0" y="210.0" width="20" height="20" rx="2" fill="url(#gold)"/>
    <rect x="49.0" y="210.0" width="20" height="20" rx="2" fill="url(#gold)"/>
    <rect x="141.0" y="210.0" width="20" height="20" rx="2" fill="url(#gold)"/>
    <rect x="164.0" y="210.0" width="20" height="20" rx="2" fill="url(#gold)"/>
  <rect x="192.0" y="210.0" width="20" height="20" rx="2" fill="url(#gold)"><animate attributeName="opacity" values="1;1;0;0" keyTimes="0;0.5;0.5;1" dur="1.1s" repeatCount="indefinite"/></rect>
    <rect x="246.0" y="83.5" width="11" height="11" rx="2" fill="#F4F6FB"/>
    <rect x="259.0" y="83.5" width="11" height="11" rx="2" fill="#F4F6FB"/>
    <rect x="272.0" y="83.5" width="11" height="11" rx="2" fill="#F4F6FB"/>
    <rect x="285.0" y="83.5" width="11" height="11" rx="2" fill="#F4F6FB"/>
    <rect x="246.0" y="96.5" width="11" height="11" rx="2" fill="#F4F6FB"/>
    <rect x="298.0" y="96.5" width="11" height="11" rx="2" fill="#F4F6FB"/>
    <rect x="246.0" y="109.5" width="11" height="11" rx="2" fill="#F4F6FB"/>
    <rect x="298.0" y="109.5" width="11" height="11" rx="2" fill="#F4F6FB"/>
    <rect x="246.0" y="122.5" width="11" height="11" rx="2" fill="#F4F6FB"/>
    <rect x="259.0" y="122.5" width="11" height="11" rx="2" fill="#F4F6FB"/>
    <rect x="272.0" y="122.5" width="11" height="11" rx="2" fill="#F4F6FB"/>
    <rect x="285.0" y="122.5" width="11" height="11" rx="2" fill="#F4F6FB"/>
    <rect x="246.0" y="135.5" width="11" height="11" rx="2" fill="#F4F6FB"/>
    <rect x="272.0" y="135.5" width="11" height="11" rx="2" fill="#F4F6FB"/>
    <rect x="246.0" y="148.5" width="11" height="11" rx="2" fill="#F4F6FB"/>
    <rect x="285.0" y="148.5" width="11" height="11" rx="2" fill="#F4F6FB"/>
    <rect x="246.0" y="161.5" width="11" height="11" rx="2" fill="#F4F6FB"/>
    <rect x="298.0" y="161.5" width="11" height="11" rx="2" fill="#F4F6FB"/>
    <rect x="324.0" y="83.5" width="11" height="11" rx="2" fill="#F4F6FB"/>
    <rect x="337.0" y="83.5" width="11" height="11" rx="2" fill="#F4F6FB"/>
    <rect x="350.0" y="83.5" width="11" height="11" rx="2" fill="#F4F6FB"/>
    <rect x="363.0" y="83.5" width="11" height="11" rx="2" fill="#F4F6FB"/>
    <rect x="376.0" y="83.5" width="11" height="11" rx="2" fill="#F4F6FB"/>
    <rect x="324.0" y="96.5" width="11" height="11" rx="2" fill="#F4F6FB"/>
    <rect x="324.0" y="109.5" width="11" height="11" rx="2" fill="#F4F6FB"/>
    <rect x="324.0" y="122.5" width="11" height="11" rx="2" fill="#F4F6FB"/>
    <rect x="337.0" y="122.5" width="11" height="11" rx="2" fill="#F4F6FB"/>
    <rect x="350.0" y="122.5" width="11" height="11" rx="2" fill="#F4F6FB"/>
    <rect x="363.0" y="122.5" width="11" height="11" rx="2" fill="#F4F6FB"/>
    <rect x="324.0" y="135.5" width="11" height="11" rx="2" fill="#F4F6FB"/>
    <rect x="324.0" y="148.5" width="11" height="11" rx="2" fill="#F4F6FB"/>
    <rect x="324.0" y="161.5" width="11" height="11" rx="2" fill="#F4F6FB"/>
    <rect x="337.0" y="161.5" width="11" height="11" rx="2" fill="#F4F6FB"/>
    <rect x="350.0" y="161.5" width="11" height="11" rx="2" fill="#F4F6FB"/>
    <rect x="363.0" y="161.5" width="11" height="11" rx="2" fill="#F4F6FB"/>
    <rect x="376.0" y="161.5" width="11" height="11" rx="2" fill="#F4F6FB"/>
    <rect x="415.0" y="83.5" width="11" height="11" rx="2" fill="#F4F6FB"/>
    <rect x="428.0" y="83.5" width="11" height="11" rx="2" fill="#F4F6FB"/>
    <rect x="441.0" y="83.5" width="11" height="11" rx="2" fill="#F4F6FB"/>
    <rect x="454.0" y="83.5" width="11" height="11" rx="2" fill="#F4F6FB"/>
    <rect x="402.0" y="96.5" width="11" height="11" rx="2" fill="#F4F6FB"/>
    <rect x="402.0" y="109.5" width="11" height="11" rx="2" fill="#F4F6FB"/>
    <rect x="402.0" y="122.5" width="11" height="11" rx="2" fill="#F4F6FB"/>
    <rect x="402.0" y="135.5" width="11" height="11" rx="2" fill="#F4F6FB"/>
    <rect x="402.0" y="148.5" width="11" height="11" rx="2" fill="#F4F6FB"/>
    <rect x="415.0" y="161.5" width="11" height="11" rx="2" fill="#F4F6FB"/>
    <rect x="428.0" y="161.5" width="11" height="11" rx="2" fill="#F4F6FB"/>
    <rect x="441.0" y="161.5" width="11" height="11" rx="2" fill="#F4F6FB"/>
    <rect x="454.0" y="161.5" width="11" height="11" rx="2" fill="#F4F6FB"/>
    <rect x="493.0" y="83.5" width="11" height="11" rx="2" fill="#F4F6FB"/>
    <rect x="506.0" y="83.5" width="11" height="11" rx="2" fill="#F4F6FB"/>
    <rect x="519.0" y="83.5" width="11" height="11" rx="2" fill="#F4F6FB"/>
    <rect x="480.0" y="96.5" width="11" height="11" rx="2" fill="#F4F6FB"/>
    <rect x="532.0" y="96.5" width="11" height="11" rx="2" fill="#F4F6FB"/>
    <rect x="480.0" y="109.5" width="11" height="11" rx="2" fill="#F4F6FB"/>
    <rect x="532.0" y="109.5" width="11" height="11" rx="2" fill="#F4F6FB"/>
    <rect x="480.0" y="122.5" width="11" height="11" rx="2" fill="#F4F6FB"/>
    <rect x="532.0" y="122.5" width="11" height="11" rx="2" fill="#F4F6FB"/>
    <rect x="480.0" y="135.5" width="11" height="11" rx="2" fill="#F4F6FB"/>
    <rect x="532.0" y="135.5" width="11" height="11" rx="2" fill="#F4F6FB"/>
    <rect x="480.0" y="148.5" width="11" height="11" rx="2" fill="#F4F6FB"/>
    <rect x="532.0" y="148.5" width="11" height="11" rx="2" fill="#F4F6FB"/>
    <rect x="493.0" y="161.5" width="11" height="11" rx="2" fill="#F4F6FB"/>
    <rect x="506.0" y="161.5" width="11" height="11" rx="2" fill="#F4F6FB"/>
    <rect x="519.0" y="161.5" width="11" height="11" rx="2" fill="#F4F6FB"/>
    <rect x="558.0" y="83.5" width="11" height="11" rx="2" fill="#F4F6FB"/>
    <rect x="610.0" y="83.5" width="11" height="11" rx="2" fill="#F4F6FB"/>
    <rect x="558.0" y="96.5" width="11" height="11" rx="2" fill="#F4F6FB"/>
    <rect x="571.0" y="96.5" width="11" height="11" rx="2" fill="#F4F6FB"/>
    <rect x="597.0" y="96.5" width="11" height="11" rx="2" fill="#F4F6FB"/>
    <rect x="610.0" y="96.5" width="11" height="11" rx="2" fill="#F4F6FB"/>
    <rect x="558.0" y="109.5" width="11" height="11" rx="2" fill="#F4F6FB"/>
    <rect x="584.0" y="109.5" width="11" height="11" rx="2" fill="#F4F6FB"/>
    <rect x="610.0" y="109.5" width="11" height="11" rx="2" fill="#F4F6FB"/>
    <rect x="558.0" y="122.5" width="11" height="11" rx="2" fill="#F4F6FB"/>
    <rect x="584.0" y="122.5" width="11" height="11" rx="2" fill="#F4F6FB"/>
    <rect x="610.0" y="122.5" width="11" height="11" rx="2" fill="#F4F6FB"/>
    <rect x="558.0" y="135.5" width="11" height="11" rx="2" fill="#F4F6FB"/>
    <rect x="610.0" y="135.5" width="11" height="11" rx="2" fill="#F4F6FB"/>
    <rect x="558.0" y="148.5" width="11" height="11" rx="2" fill="#F4F6FB"/>
    <rect x="610.0" y="148.5" width="11" height="11" rx="2" fill="#F4F6FB"/>
    <rect x="558.0" y="161.5" width="11" height="11" rx="2" fill="#F4F6FB"/>
    <rect x="610.0" y="161.5" width="11" height="11" rx="2" fill="#F4F6FB"/>
    <rect x="636.0" y="83.5" width="11" height="11" rx="2" fill="#F4F6FB"/>
    <rect x="649.0" y="83.5" width="11" height="11" rx="2" fill="#F4F6FB"/>
    <rect x="662.0" y="83.5" width="11" height="11" rx="2" fill="#F4F6FB"/>
    <rect x="675.0" y="83.5" width="11" height="11" rx="2" fill="#F4F6FB"/>
    <rect x="636.0" y="96.5" width="11" height="11" rx="2" fill="#F4F6FB"/>
    <rect x="688.0" y="96.5" width="11" height="11" rx="2" fill="#F4F6FB"/>
    <rect x="636.0" y="109.5" width="11" height="11" rx="2" fill="#F4F6FB"/>
    <rect x="688.0" y="109.5" width="11" height="11" rx="2" fill="#F4F6FB"/>
    <rect x="636.0" y="122.5" width="11" height="11" rx="2" fill="#F4F6FB"/>
    <rect x="649.0" y="122.5" width="11" height="11" rx="2" fill="#F4F6FB"/>
    <rect x="662.0" y="122.5" width="11" height="11" rx="2" fill="#F4F6FB"/>
    <rect x="675.0" y="122.5" width="11" height="11" rx="2" fill="#F4F6FB"/>
    <rect x="636.0" y="135.5" width="11" height="11" rx="2" fill="#F4F6FB"/>
    <rect x="636.0" y="148.5" width="11" height="11" rx="2" fill="#F4F6FB"/>
    <rect x="636.0" y="161.5" width="11" height="11" rx="2" fill="#F4F6FB"/>
    <rect x="714.0" y="83.5" width="11" height="11" rx="2" fill="url(#gold)"/>
    <rect x="727.0" y="83.5" width="11" height="11" rx="2" fill="url(#gold)"/>
    <rect x="740.0" y="83.5" width="11" height="11" rx="2" fill="url(#gold)"/>
    <rect x="753.0" y="83.5" width="11" height="11" rx="2" fill="url(#gold)"/>
    <rect x="766.0" y="83.5" width="11" height="11" rx="2" fill="url(#gold)"/>
    <rect x="714.0" y="96.5" width="11" height="11" rx="2" fill="url(#gold)"/>
    <rect x="714.0" y="109.5" width="11" height="11" rx="2" fill="url(#gold)"/>
    <rect x="714.0" y="122.5" width="11" height="11" rx="2" fill="url(#gold)"/>
    <rect x="727.0" y="122.5" width="11" height="11" rx="2" fill="url(#gold)"/>
    <rect x="740.0" y="122.5" width="11" height="11" rx="2" fill="url(#gold)"/>
    <rect x="753.0" y="122.5" width="11" height="11" rx="2" fill="url(#gold)"/>
    <rect x="714.0" y="135.5" width="11" height="11" rx="2" fill="url(#gold)"/>
    <rect x="714.0" y="148.5" width="11" height="11" rx="2" fill="url(#gold)"/>
    <rect x="714.0" y="161.5" width="11" height="11" rx="2" fill="url(#gold)"/>
    <rect x="727.0" y="161.5" width="11" height="11" rx="2" fill="url(#gold)"/>
    <rect x="740.0" y="161.5" width="11" height="11" rx="2" fill="url(#gold)"/>
    <rect x="753.0" y="161.5" width="11" height="11" rx="2" fill="url(#gold)"/>
    <rect x="766.0" y="161.5" width="11" height="11" rx="2" fill="url(#gold)"/>
    <rect x="792.0" y="83.5" width="11" height="11" rx="2" fill="url(#gold)"/>
    <rect x="844.0" y="83.5" width="11" height="11" rx="2" fill="url(#gold)"/>
    <rect x="792.0" y="96.5" width="11" height="11" rx="2" fill="url(#gold)"/>
    <rect x="805.0" y="96.5" width="11" height="11" rx="2" fill="url(#gold)"/>
    <rect x="844.0" y="96.5" width="11" height="11" rx="2" fill="url(#gold)"/>
    <rect x="792.0" y="109.5" width="11" height="11" rx="2" fill="url(#gold)"/>
    <rect x="818.0" y="109.5" width="11" height="11" rx="2" fill="url(#gold)"/>
    <rect x="844.0" y="109.5" width="11" height="11" rx="2" fill="url(#gold)"/>
    <rect x="792.0" y="122.5" width="11" height="11" rx="2" fill="url(#gold)"/>
    <rect x="818.0" y="122.5" width="11" height="11" rx="2" fill="url(#gold)"/>
    <rect x="844.0" y="122.5" width="11" height="11" rx="2" fill="url(#gold)"/>
    <rect x="792.0" y="135.5" width="11" height="11" rx="2" fill="url(#gold)"/>
    <rect x="831.0" y="135.5" width="11" height="11" rx="2" fill="url(#gold)"/>
    <rect x="844.0" y="135.5" width="11" height="11" rx="2" fill="url(#gold)"/>
    <rect x="792.0" y="148.5" width="11" height="11" rx="2" fill="url(#gold)"/>
    <rect x="844.0" y="148.5" width="11" height="11" rx="2" fill="url(#gold)"/>
    <rect x="792.0" y="161.5" width="11" height="11" rx="2" fill="url(#gold)"/>
    <rect x="844.0" y="161.5" width="11" height="11" rx="2" fill="url(#gold)"/>
    <rect x="870.0" y="83.5" width="11" height="11" rx="2" fill="url(#gold)"/>
    <rect x="883.0" y="83.5" width="11" height="11" rx="2" fill="url(#gold)"/>
    <rect x="896.0" y="83.5" width="11" height="11" rx="2" fill="url(#gold)"/>
    <rect x="909.0" y="83.5" width="11" height="11" rx="2" fill="url(#gold)"/>
    <rect x="870.0" y="96.5" width="11" height="11" rx="2" fill="url(#gold)"/>
    <rect x="922.0" y="96.5" width="11" height="11" rx="2" fill="url(#gold)"/>
    <rect x="870.0" y="109.5" width="11" height="11" rx="2" fill="url(#gold)"/>
    <rect x="922.0" y="109.5" width="11" height="11" rx="2" fill="url(#gold)"/>
    <rect x="870.0" y="122.5" width="11" height="11" rx="2" fill="url(#gold)"/>
    <rect x="922.0" y="122.5" width="11" height="11" rx="2" fill="url(#gold)"/>
    <rect x="870.0" y="135.5" width="11" height="11" rx="2" fill="url(#gold)"/>
    <rect x="922.0" y="135.5" width="11" height="11" rx="2" fill="url(#gold)"/>
    <rect x="870.0" y="148.5" width="11" height="11" rx="2" fill="url(#gold)"/>
    <rect x="922.0" y="148.5" width="11" height="11" rx="2" fill="url(#gold)"/>
    <rect x="870.0" y="161.5" width="11" height="11" rx="2" fill="url(#gold)"/>
    <rect x="883.0" y="161.5" width="11" height="11" rx="2" fill="url(#gold)"/>
    <rect x="896.0" y="161.5" width="11" height="11" rx="2" fill="url(#gold)"/>
    <rect x="909.0" y="161.5" width="11" height="11" rx="2" fill="url(#gold)"/>
    <rect x="948.0" y="83.5" width="11" height="11" rx="2" fill="url(#gold)"/>
    <rect x="961.0" y="83.5" width="11" height="11" rx="2" fill="url(#gold)"/>
    <rect x="974.0" y="83.5" width="11" height="11" rx="2" fill="url(#gold)"/>
    <rect x="987.0" y="83.5" width="11" height="11" rx="2" fill="url(#gold)"/>
    <rect x="1000.0" y="83.5" width="11" height="11" rx="2" fill="url(#gold)"/>
    <rect x="974.0" y="96.5" width="11" height="11" rx="2" fill="url(#gold)"/>
    <rect x="974.0" y="109.5" width="11" height="11" rx="2" fill="url(#gold)"/>
    <rect x="974.0" y="122.5" width="11" height="11" rx="2" fill="url(#gold)"/>
    <rect x="974.0" y="135.5" width="11" height="11" rx="2" fill="url(#gold)"/>
    <rect x="974.0" y="148.5" width="11" height="11" rx="2" fill="url(#gold)"/>
    <rect x="948.0" y="161.5" width="11" height="11" rx="2" fill="url(#gold)"/>
    <rect x="961.0" y="161.5" width="11" height="11" rx="2" fill="url(#gold)"/>
    <rect x="974.0" y="161.5" width="11" height="11" rx="2" fill="url(#gold)"/>
    <rect x="987.0" y="161.5" width="11" height="11" rx="2" fill="url(#gold)"/>
    <rect x="1000.0" y="161.5" width="11" height="11" rx="2" fill="url(#gold)"/>
    <rect x="1026.0" y="83.5" width="11" height="11" rx="2" fill="url(#gold)"/>
    <rect x="1078.0" y="83.5" width="11" height="11" rx="2" fill="url(#gold)"/>
    <rect x="1026.0" y="96.5" width="11" height="11" rx="2" fill="url(#gold)"/>
    <rect x="1078.0" y="96.5" width="11" height="11" rx="2" fill="url(#gold)"/>
    <rect x="1026.0" y="109.5" width="11" height="11" rx="2" fill="url(#gold)"/>
    <rect x="1078.0" y="109.5" width="11" height="11" rx="2" fill="url(#gold)"/>
    <rect x="1026.0" y="122.5" width="11" height="11" rx="2" fill="url(#gold)"/>
    <rect x="1078.0" y="122.5" width="11" height="11" rx="2" fill="url(#gold)"/>
    <rect x="1026.0" y="135.5" width="11" height="11" rx="2" fill="url(#gold)"/>
    <rect x="1078.0" y="135.5" width="11" height="11" rx="2" fill="url(#gold)"/>
    <rect x="1026.0" y="148.5" width="11" height="11" rx="2" fill="url(#gold)"/>
    <rect x="1078.0" y="148.5" width="11" height="11" rx="2" fill="url(#gold)"/>
    <rect x="1039.0" y="161.5" width="11" height="11" rx="2" fill="url(#gold)"/>
    <rect x="1052.0" y="161.5" width="11" height="11" rx="2" fill="url(#gold)"/>
    <rect x="1065.0" y="161.5" width="11" height="11" rx="2" fill="url(#gold)"/>
    <rect x="1104.0" y="83.5" width="11" height="11" rx="2" fill="url(#gold)"/>
    <rect x="1156.0" y="83.5" width="11" height="11" rx="2" fill="url(#gold)"/>
    <rect x="1104.0" y="96.5" width="11" height="11" rx="2" fill="url(#gold)"/>
    <rect x="1117.0" y="96.5" width="11" height="11" rx="2" fill="url(#gold)"/>
    <rect x="1143.0" y="96.5" width="11" height="11" rx="2" fill="url(#gold)"/>
    <rect x="1156.0" y="96.5" width="11" height="11" rx="2" fill="url(#gold)"/>
    <rect x="1104.0" y="109.5" width="11" height="11" rx="2" fill="url(#gold)"/>
    <rect x="1130.0" y="109.5" width="11" height="11" rx="2" fill="url(#gold)"/>
    <rect x="1156.0" y="109.5" width="11" height="11" rx="2" fill="url(#gold)"/>
    <rect x="1104.0" y="122.5" width="11" height="11" rx="2" fill="url(#gold)"/>
    <rect x="1130.0" y="122.5" width="11" height="11" rx="2" fill="url(#gold)"/>
    <rect x="1156.0" y="122.5" width="11" height="11" rx="2" fill="url(#gold)"/>
    <rect x="1104.0" y="135.5" width="11" height="11" rx="2" fill="url(#gold)"/>
    <rect x="1156.0" y="135.5" width="11" height="11" rx="2" fill="url(#gold)"/>
    <rect x="1104.0" y="148.5" width="11" height="11" rx="2" fill="url(#gold)"/>
    <rect x="1156.0" y="148.5" width="11" height="11" rx="2" fill="url(#gold)"/>
    <rect x="1104.0" y="161.5" width="11" height="11" rx="2" fill="url(#gold)"/>
    <rect x="1156.0" y="161.5" width="11" height="11" rx="2" fill="url(#gold)"/>
</svg>